<mxfile host="Electron" modified="2024-10-21T03:28:56.324Z" agent="Mozilla/5.0 (Windows NT 10.0; Win64; x64) AppleWebKit/537.36 (KHTML, like Gecko) draw.io/24.2.5 Chrome/120.0.6099.109 Electron/28.1.0 Safari/537.36" etag="yLaghQxoI7Y20n-vih_H" version="24.2.5" type="device">
  <diagram name="PÃ¡gina-1" id="YDQHV5v2JtVvv-fOzWh-">
    <mxGraphModel dx="1903" dy="823" grid="1" gridSize="10" guides="1" tooltips="1" connect="1" arrows="1" fold="1" page="1" pageScale="1" pageWidth="4000" pageHeight="4000" math="0" shadow="0">
      <root>
        <mxCell id="0" />
        <mxCell id="1" parent="0" />
        <mxCell id="h6fizct3Y-xrjBHxHAXL-3" style="edgeStyle=orthogonalEdgeStyle;rounded=0;orthogonalLoop=1;jettySize=auto;html=1;exitX=0.5;exitY=1;exitDx=0;exitDy=0;entryX=0.5;entryY=0;entryDx=0;entryDy=0;" edge="1" parent="1" source="h6fizct3Y-xrjBHxHAXL-1" target="h6fizct3Y-xrjBHxHAXL-2">
          <mxGeometry relative="1" as="geometry" />
        </mxCell>
        <mxCell id="h6fizct3Y-xrjBHxHAXL-1" value="Agrega(int x)" style="ellipse;whiteSpace=wrap;html=1;" vertex="1" parent="1">
          <mxGeometry x="810" y="10" width="120" height="80" as="geometry" />
        </mxCell>
        <mxCell id="h6fizct3Y-xrjBHxHAXL-2" value="a=new Nodo;&lt;div&gt;a-&amp;gt;dato=x;&lt;/div&gt;&lt;div&gt;a-&amp;gt;sig=null;&lt;/div&gt;&lt;div&gt;a-&amp;gt;ant=null;&lt;/div&gt;" style="rounded=1;whiteSpace=wrap;html=1;absoluteArcSize=1;arcSize=14;strokeWidth=2;" vertex="1" parent="1">
          <mxGeometry x="820" y="120" width="100" height="100" as="geometry" />
        </mxCell>
        <mxCell id="h6fizct3Y-xrjBHxHAXL-7" style="edgeStyle=orthogonalEdgeStyle;rounded=0;orthogonalLoop=1;jettySize=auto;html=1;exitX=1;exitY=0.5;exitDx=0;exitDy=0;exitPerimeter=0;entryX=0.5;entryY=0;entryDx=0;entryDy=0;" edge="1" parent="1" source="h6fizct3Y-xrjBHxHAXL-4" target="h6fizct3Y-xrjBHxHAXL-6">
          <mxGeometry relative="1" as="geometry" />
        </mxCell>
        <mxCell id="h6fizct3Y-xrjBHxHAXL-4" value="vacia()" style="strokeWidth=2;html=1;shape=mxgraph.flowchart.decision;whiteSpace=wrap;" vertex="1" parent="1">
          <mxGeometry x="820" y="250" width="100" height="70" as="geometry" />
        </mxCell>
        <mxCell id="h6fizct3Y-xrjBHxHAXL-5" style="edgeStyle=orthogonalEdgeStyle;rounded=0;orthogonalLoop=1;jettySize=auto;html=1;exitX=0.5;exitY=1;exitDx=0;exitDy=0;entryX=0.5;entryY=0;entryDx=0;entryDy=0;entryPerimeter=0;" edge="1" parent="1" source="h6fizct3Y-xrjBHxHAXL-2" target="h6fizct3Y-xrjBHxHAXL-4">
          <mxGeometry relative="1" as="geometry" />
        </mxCell>
        <mxCell id="h6fizct3Y-xrjBHxHAXL-43" style="edgeStyle=orthogonalEdgeStyle;rounded=0;orthogonalLoop=1;jettySize=auto;html=1;exitX=0.5;exitY=1;exitDx=0;exitDy=0;" edge="1" parent="1" source="h6fizct3Y-xrjBHxHAXL-6">
          <mxGeometry relative="1" as="geometry">
            <mxPoint x="780" y="770" as="targetPoint" />
          </mxGeometry>
        </mxCell>
        <mxCell id="h6fizct3Y-xrjBHxHAXL-6" value="L=a;" style="rounded=1;whiteSpace=wrap;html=1;absoluteArcSize=1;arcSize=14;strokeWidth=2;" vertex="1" parent="1">
          <mxGeometry x="930" y="320" width="100" height="50" as="geometry" />
        </mxCell>
        <mxCell id="h6fizct3Y-xrjBHxHAXL-16" style="edgeStyle=orthogonalEdgeStyle;rounded=0;orthogonalLoop=1;jettySize=auto;html=1;exitX=1;exitY=0.5;exitDx=0;exitDy=0;exitPerimeter=0;entryX=0.5;entryY=0;entryDx=0;entryDy=0;" edge="1" parent="1" source="h6fizct3Y-xrjBHxHAXL-9" target="h6fizct3Y-xrjBHxHAXL-15">
          <mxGeometry relative="1" as="geometry" />
        </mxCell>
        <mxCell id="h6fizct3Y-xrjBHxHAXL-19" style="edgeStyle=orthogonalEdgeStyle;rounded=0;orthogonalLoop=1;jettySize=auto;html=1;exitX=0;exitY=0.5;exitDx=0;exitDy=0;exitPerimeter=0;entryX=0.5;entryY=0;entryDx=0;entryDy=0;" edge="1" parent="1" source="h6fizct3Y-xrjBHxHAXL-9" target="h6fizct3Y-xrjBHxHAXL-17">
          <mxGeometry relative="1" as="geometry" />
        </mxCell>
        <mxCell id="h6fizct3Y-xrjBHxHAXL-9" value="a-&amp;gt;dato&amp;lt;L-&amp;gt;dato" style="strokeWidth=2;html=1;shape=mxgraph.flowchart.decision;whiteSpace=wrap;" vertex="1" parent="1">
          <mxGeometry x="630" y="310" width="170" height="70" as="geometry" />
        </mxCell>
        <mxCell id="h6fizct3Y-xrjBHxHAXL-10" style="edgeStyle=orthogonalEdgeStyle;rounded=0;orthogonalLoop=1;jettySize=auto;html=1;exitX=0;exitY=0.5;exitDx=0;exitDy=0;exitPerimeter=0;entryX=0.5;entryY=0;entryDx=0;entryDy=0;entryPerimeter=0;" edge="1" parent="1" source="h6fizct3Y-xrjBHxHAXL-4" target="h6fizct3Y-xrjBHxHAXL-9">
          <mxGeometry relative="1" as="geometry" />
        </mxCell>
        <mxCell id="h6fizct3Y-xrjBHxHAXL-11" value="Si" style="text;html=1;align=center;verticalAlign=middle;whiteSpace=wrap;rounded=0;" vertex="1" parent="1">
          <mxGeometry x="910" y="250" width="60" height="30" as="geometry" />
        </mxCell>
        <mxCell id="h6fizct3Y-xrjBHxHAXL-12" value="No" style="text;html=1;align=center;verticalAlign=middle;whiteSpace=wrap;rounded=0;" vertex="1" parent="1">
          <mxGeometry x="760" y="250" width="60" height="30" as="geometry" />
        </mxCell>
        <mxCell id="h6fizct3Y-xrjBHxHAXL-13" value="No" style="text;html=1;align=center;verticalAlign=middle;whiteSpace=wrap;rounded=0;" vertex="1" parent="1">
          <mxGeometry x="610" y="300" width="60" height="30" as="geometry" />
        </mxCell>
        <mxCell id="h6fizct3Y-xrjBHxHAXL-14" value="Si" style="text;html=1;align=center;verticalAlign=middle;whiteSpace=wrap;rounded=0;" vertex="1" parent="1">
          <mxGeometry x="760" y="300" width="60" height="30" as="geometry" />
        </mxCell>
        <mxCell id="h6fizct3Y-xrjBHxHAXL-15" value="a-&amp;gt;sig=L;&lt;div&gt;L-&amp;gt;ant=a;&lt;/div&gt;&lt;div&gt;L=a&lt;/div&gt;" style="rounded=1;whiteSpace=wrap;html=1;absoluteArcSize=1;arcSize=14;strokeWidth=2;" vertex="1" parent="1">
          <mxGeometry x="780" y="380" width="100" height="100" as="geometry" />
        </mxCell>
        <mxCell id="h6fizct3Y-xrjBHxHAXL-17" value="a2=L" style="rounded=1;whiteSpace=wrap;html=1;absoluteArcSize=1;arcSize=14;strokeWidth=2;" vertex="1" parent="1">
          <mxGeometry x="530" y="370" width="100" height="50" as="geometry" />
        </mxCell>
        <mxCell id="h6fizct3Y-xrjBHxHAXL-18" style="edgeStyle=orthogonalEdgeStyle;rounded=0;orthogonalLoop=1;jettySize=auto;html=1;exitX=0.5;exitY=1;exitDx=0;exitDy=0;" edge="1" parent="1" source="h6fizct3Y-xrjBHxHAXL-17" target="h6fizct3Y-xrjBHxHAXL-17">
          <mxGeometry relative="1" as="geometry" />
        </mxCell>
        <mxCell id="h6fizct3Y-xrjBHxHAXL-24" style="edgeStyle=orthogonalEdgeStyle;rounded=0;orthogonalLoop=1;jettySize=auto;html=1;exitX=1;exitY=0.5;exitDx=0;exitDy=0;exitPerimeter=0;entryX=0.5;entryY=0;entryDx=0;entryDy=0;" edge="1" parent="1" source="h6fizct3Y-xrjBHxHAXL-20" target="h6fizct3Y-xrjBHxHAXL-23">
          <mxGeometry relative="1" as="geometry" />
        </mxCell>
        <mxCell id="h6fizct3Y-xrjBHxHAXL-30" style="edgeStyle=orthogonalEdgeStyle;rounded=0;orthogonalLoop=1;jettySize=auto;html=1;exitX=0;exitY=0.5;exitDx=0;exitDy=0;exitPerimeter=0;" edge="1" parent="1" source="h6fizct3Y-xrjBHxHAXL-20" target="h6fizct3Y-xrjBHxHAXL-29">
          <mxGeometry relative="1" as="geometry" />
        </mxCell>
        <mxCell id="h6fizct3Y-xrjBHxHAXL-20" value="a2-&amp;gt;sig !=NULL &amp;amp;&amp;amp; a2-&amp;gt;sig-&amp;gt;dato&amp;lt;aux-&amp;gt;dato" style="strokeWidth=2;html=1;shape=mxgraph.flowchart.decision;whiteSpace=wrap;" vertex="1" parent="1">
          <mxGeometry x="340" y="450" width="330" height="110" as="geometry" />
        </mxCell>
        <mxCell id="h6fizct3Y-xrjBHxHAXL-22" style="edgeStyle=orthogonalEdgeStyle;rounded=0;orthogonalLoop=1;jettySize=auto;html=1;exitX=0.5;exitY=1;exitDx=0;exitDy=0;entryX=0.5;entryY=0;entryDx=0;entryDy=0;entryPerimeter=0;" edge="1" parent="1" source="h6fizct3Y-xrjBHxHAXL-17" target="h6fizct3Y-xrjBHxHAXL-20">
          <mxGeometry relative="1" as="geometry" />
        </mxCell>
        <mxCell id="h6fizct3Y-xrjBHxHAXL-23" value="a2=a2-&amp;gt;sig;" style="rounded=1;whiteSpace=wrap;html=1;absoluteArcSize=1;arcSize=14;strokeWidth=2;" vertex="1" parent="1">
          <mxGeometry x="640" y="570" width="100" height="50" as="geometry" />
        </mxCell>
        <mxCell id="h6fizct3Y-xrjBHxHAXL-25" value="Si" style="text;html=1;align=center;verticalAlign=middle;whiteSpace=wrap;rounded=0;" vertex="1" parent="1">
          <mxGeometry x="570" y="440" width="60" height="30" as="geometry" />
        </mxCell>
        <mxCell id="h6fizct3Y-xrjBHxHAXL-26" value="No" style="text;html=1;align=center;verticalAlign=middle;whiteSpace=wrap;rounded=0;" vertex="1" parent="1">
          <mxGeometry x="370" y="440" width="60" height="30" as="geometry" />
        </mxCell>
        <mxCell id="h6fizct3Y-xrjBHxHAXL-28" value="" style="endArrow=classic;html=1;rounded=0;exitX=0.5;exitY=1;exitDx=0;exitDy=0;" edge="1" parent="1" source="h6fizct3Y-xrjBHxHAXL-23">
          <mxGeometry width="50" height="50" relative="1" as="geometry">
            <mxPoint x="770" y="640" as="sourcePoint" />
            <mxPoint x="550" y="440" as="targetPoint" />
            <Array as="points">
              <mxPoint x="690" y="640" />
              <mxPoint x="760" y="640" />
              <mxPoint x="760" y="440" />
            </Array>
          </mxGeometry>
        </mxCell>
        <mxCell id="h6fizct3Y-xrjBHxHAXL-29" value="a-&amp;gt;sig=a2-&amp;gt;sig;&lt;div&gt;a-&amp;gt;ant=a2;&lt;/div&gt;&lt;div&gt;a2-&amp;gt;sig=a;&lt;/div&gt;" style="rounded=1;whiteSpace=wrap;html=1;absoluteArcSize=1;arcSize=14;strokeWidth=2;" vertex="1" parent="1">
          <mxGeometry x="270" y="570" width="100" height="50" as="geometry" />
        </mxCell>
        <mxCell id="h6fizct3Y-xrjBHxHAXL-37" style="edgeStyle=orthogonalEdgeStyle;rounded=0;orthogonalLoop=1;jettySize=auto;html=1;exitX=1;exitY=0.5;exitDx=0;exitDy=0;exitPerimeter=0;entryX=0.5;entryY=0;entryDx=0;entryDy=0;" edge="1" parent="1" source="h6fizct3Y-xrjBHxHAXL-31" target="h6fizct3Y-xrjBHxHAXL-36">
          <mxGeometry relative="1" as="geometry" />
        </mxCell>
        <mxCell id="h6fizct3Y-xrjBHxHAXL-31" value="a2-&amp;gt;sig!=null" style="strokeWidth=2;html=1;shape=mxgraph.flowchart.decision;whiteSpace=wrap;" vertex="1" parent="1">
          <mxGeometry x="230" y="660" width="170" height="70" as="geometry" />
        </mxCell>
        <mxCell id="h6fizct3Y-xrjBHxHAXL-32" value="Si" style="text;html=1;align=center;verticalAlign=middle;whiteSpace=wrap;rounded=0;" vertex="1" parent="1">
          <mxGeometry x="360" y="650" width="60" height="30" as="geometry" />
        </mxCell>
        <mxCell id="h6fizct3Y-xrjBHxHAXL-34" value="No" style="text;html=1;align=center;verticalAlign=middle;whiteSpace=wrap;rounded=0;" vertex="1" parent="1">
          <mxGeometry x="200" y="650" width="60" height="30" as="geometry" />
        </mxCell>
        <mxCell id="h6fizct3Y-xrjBHxHAXL-35" style="edgeStyle=orthogonalEdgeStyle;rounded=0;orthogonalLoop=1;jettySize=auto;html=1;exitX=0.5;exitY=1;exitDx=0;exitDy=0;entryX=0.5;entryY=0;entryDx=0;entryDy=0;entryPerimeter=0;" edge="1" parent="1" source="h6fizct3Y-xrjBHxHAXL-29" target="h6fizct3Y-xrjBHxHAXL-31">
          <mxGeometry relative="1" as="geometry" />
        </mxCell>
        <mxCell id="h6fizct3Y-xrjBHxHAXL-36" value="a2-&amp;gt;sig-&amp;gt;ant=a;" style="rounded=1;whiteSpace=wrap;html=1;absoluteArcSize=1;arcSize=14;strokeWidth=2;" vertex="1" parent="1">
          <mxGeometry x="390" y="730" width="100" height="50" as="geometry" />
        </mxCell>
        <mxCell id="h6fizct3Y-xrjBHxHAXL-38" value="Fin" style="strokeWidth=2;html=1;shape=mxgraph.flowchart.terminator;whiteSpace=wrap;" vertex="1" parent="1">
          <mxGeometry x="730" y="770" width="100" height="60" as="geometry" />
        </mxCell>
        <mxCell id="h6fizct3Y-xrjBHxHAXL-39" style="edgeStyle=orthogonalEdgeStyle;rounded=0;orthogonalLoop=1;jettySize=auto;html=1;exitX=0.5;exitY=1;exitDx=0;exitDy=0;entryX=0;entryY=0.671;entryDx=0;entryDy=0;entryPerimeter=0;" edge="1" parent="1" source="h6fizct3Y-xrjBHxHAXL-36" target="h6fizct3Y-xrjBHxHAXL-38">
          <mxGeometry relative="1" as="geometry" />
        </mxCell>
        <mxCell id="h6fizct3Y-xrjBHxHAXL-41" value="" style="endArrow=classic;html=1;rounded=0;exitX=0;exitY=0.5;exitDx=0;exitDy=0;exitPerimeter=0;" edge="1" parent="1" source="h6fizct3Y-xrjBHxHAXL-31">
          <mxGeometry width="50" height="50" relative="1" as="geometry">
            <mxPoint x="270" y="880" as="sourcePoint" />
            <mxPoint x="720" y="810" as="targetPoint" />
            <Array as="points">
              <mxPoint x="230" y="810" />
            </Array>
          </mxGeometry>
        </mxCell>
        <mxCell id="h6fizct3Y-xrjBHxHAXL-42" style="edgeStyle=orthogonalEdgeStyle;rounded=0;orthogonalLoop=1;jettySize=auto;html=1;exitX=0.5;exitY=1;exitDx=0;exitDy=0;entryX=0.5;entryY=0;entryDx=0;entryDy=0;entryPerimeter=0;" edge="1" parent="1" source="h6fizct3Y-xrjBHxHAXL-15" target="h6fizct3Y-xrjBHxHAXL-38">
          <mxGeometry relative="1" as="geometry" />
        </mxCell>
        <mxCell id="h6fizct3Y-xrjBHxHAXL-44" value="Elimina(int x)" style="ellipse;whiteSpace=wrap;html=1;" vertex="1" parent="1">
          <mxGeometry x="2080" y="40" width="120" height="80" as="geometry" />
        </mxCell>
        <mxCell id="h6fizct3Y-xrjBHxHAXL-53" style="edgeStyle=orthogonalEdgeStyle;rounded=0;orthogonalLoop=1;jettySize=auto;html=1;exitX=1;exitY=0.5;exitDx=0;exitDy=0;exitPerimeter=0;" edge="1" parent="1" source="h6fizct3Y-xrjBHxHAXL-47" target="h6fizct3Y-xrjBHxHAXL-52">
          <mxGeometry relative="1" as="geometry" />
        </mxCell>
        <mxCell id="h6fizct3Y-xrjBHxHAXL-47" value="vacia()" style="strokeWidth=2;html=1;shape=mxgraph.flowchart.decision;whiteSpace=wrap;" vertex="1" parent="1">
          <mxGeometry x="2090" y="160" width="100" height="70" as="geometry" />
        </mxCell>
        <mxCell id="h6fizct3Y-xrjBHxHAXL-48" style="edgeStyle=orthogonalEdgeStyle;rounded=0;orthogonalLoop=1;jettySize=auto;html=1;exitX=0.5;exitY=1;exitDx=0;exitDy=0;entryX=0.5;entryY=0;entryDx=0;entryDy=0;entryPerimeter=0;" edge="1" parent="1" source="h6fizct3Y-xrjBHxHAXL-44" target="h6fizct3Y-xrjBHxHAXL-47">
          <mxGeometry relative="1" as="geometry" />
        </mxCell>
        <mxCell id="h6fizct3Y-xrjBHxHAXL-49" value="Si" style="text;html=1;align=center;verticalAlign=middle;whiteSpace=wrap;rounded=0;" vertex="1" parent="1">
          <mxGeometry x="2180" y="140" width="60" height="30" as="geometry" />
        </mxCell>
        <mxCell id="h6fizct3Y-xrjBHxHAXL-50" value="No" style="text;html=1;align=center;verticalAlign=middle;whiteSpace=wrap;rounded=0;" vertex="1" parent="1">
          <mxGeometry x="2030" y="140" width="60" height="30" as="geometry" />
        </mxCell>
        <mxCell id="h6fizct3Y-xrjBHxHAXL-52" value="error" style="rounded=1;whiteSpace=wrap;html=1;absoluteArcSize=1;arcSize=14;strokeWidth=2;" vertex="1" parent="1">
          <mxGeometry x="2190" y="235" width="100" height="80" as="geometry" />
        </mxCell>
        <mxCell id="h6fizct3Y-xrjBHxHAXL-59" style="edgeStyle=orthogonalEdgeStyle;rounded=0;orthogonalLoop=1;jettySize=auto;html=1;exitX=1;exitY=0.5;exitDx=0;exitDy=0;exitPerimeter=0;entryX=0.5;entryY=0;entryDx=0;entryDy=0;" edge="1" parent="1" source="h6fizct3Y-xrjBHxHAXL-54" target="h6fizct3Y-xrjBHxHAXL-58">
          <mxGeometry relative="1" as="geometry" />
        </mxCell>
        <mxCell id="h6fizct3Y-xrjBHxHAXL-54" value="!Buscar(int x)" style="strokeWidth=2;html=1;shape=mxgraph.flowchart.decision;whiteSpace=wrap;" vertex="1" parent="1">
          <mxGeometry x="1950" y="250" width="100" height="70" as="geometry" />
        </mxCell>
        <mxCell id="h6fizct3Y-xrjBHxHAXL-55" style="edgeStyle=orthogonalEdgeStyle;rounded=0;orthogonalLoop=1;jettySize=auto;html=1;exitX=0;exitY=0.5;exitDx=0;exitDy=0;exitPerimeter=0;entryX=0.5;entryY=0;entryDx=0;entryDy=0;entryPerimeter=0;" edge="1" parent="1" source="h6fizct3Y-xrjBHxHAXL-47" target="h6fizct3Y-xrjBHxHAXL-54">
          <mxGeometry relative="1" as="geometry" />
        </mxCell>
        <mxCell id="h6fizct3Y-xrjBHxHAXL-56" value="Si" style="text;html=1;align=center;verticalAlign=middle;whiteSpace=wrap;rounded=0;" vertex="1" parent="1">
          <mxGeometry x="2045" y="230" width="60" height="30" as="geometry" />
        </mxCell>
        <mxCell id="h6fizct3Y-xrjBHxHAXL-57" value="No" style="text;html=1;align=center;verticalAlign=middle;whiteSpace=wrap;rounded=0;" vertex="1" parent="1">
          <mxGeometry x="1895" y="230" width="60" height="30" as="geometry" />
        </mxCell>
        <mxCell id="h6fizct3Y-xrjBHxHAXL-58" value="error" style="rounded=1;whiteSpace=wrap;html=1;absoluteArcSize=1;arcSize=14;strokeWidth=2;" vertex="1" parent="1">
          <mxGeometry x="2040" y="330" width="100" height="80" as="geometry" />
        </mxCell>
        <mxCell id="h6fizct3Y-xrjBHxHAXL-81" style="edgeStyle=orthogonalEdgeStyle;rounded=0;orthogonalLoop=1;jettySize=auto;html=1;exitX=0;exitY=0.5;exitDx=0;exitDy=0;exitPerimeter=0;entryX=0.5;entryY=0;entryDx=0;entryDy=0;" edge="1" parent="1" source="h6fizct3Y-xrjBHxHAXL-60" target="h6fizct3Y-xrjBHxHAXL-76">
          <mxGeometry relative="1" as="geometry" />
        </mxCell>
        <mxCell id="h6fizct3Y-xrjBHxHAXL-60" value="L-&amp;gt;dato==x" style="strokeWidth=2;html=1;shape=mxgraph.flowchart.decision;whiteSpace=wrap;" vertex="1" parent="1">
          <mxGeometry x="1800" y="335" width="100" height="70" as="geometry" />
        </mxCell>
        <mxCell id="h6fizct3Y-xrjBHxHAXL-61" style="edgeStyle=orthogonalEdgeStyle;rounded=0;orthogonalLoop=1;jettySize=auto;html=1;exitX=0;exitY=0.5;exitDx=0;exitDy=0;exitPerimeter=0;entryX=0.5;entryY=0;entryDx=0;entryDy=0;entryPerimeter=0;" edge="1" parent="1" source="h6fizct3Y-xrjBHxHAXL-54" target="h6fizct3Y-xrjBHxHAXL-60">
          <mxGeometry relative="1" as="geometry" />
        </mxCell>
        <mxCell id="h6fizct3Y-xrjBHxHAXL-62" value="No" style="text;html=1;align=center;verticalAlign=middle;whiteSpace=wrap;rounded=0;" vertex="1" parent="1">
          <mxGeometry x="1760" y="300" width="60" height="30" as="geometry" />
        </mxCell>
        <mxCell id="h6fizct3Y-xrjBHxHAXL-63" value="Si" style="text;html=1;align=center;verticalAlign=middle;whiteSpace=wrap;rounded=0;" vertex="1" parent="1">
          <mxGeometry x="1880" y="310" width="60" height="30" as="geometry" />
        </mxCell>
        <mxCell id="h6fizct3Y-xrjBHxHAXL-69" style="edgeStyle=orthogonalEdgeStyle;rounded=0;orthogonalLoop=1;jettySize=auto;html=1;exitX=1;exitY=0.5;exitDx=0;exitDy=0;exitPerimeter=0;entryX=0.5;entryY=0;entryDx=0;entryDy=0;" edge="1" parent="1" source="h6fizct3Y-xrjBHxHAXL-64" target="h6fizct3Y-xrjBHxHAXL-68">
          <mxGeometry relative="1" as="geometry" />
        </mxCell>
        <mxCell id="h6fizct3Y-xrjBHxHAXL-71" style="edgeStyle=orthogonalEdgeStyle;rounded=0;orthogonalLoop=1;jettySize=auto;html=1;exitX=0;exitY=0.5;exitDx=0;exitDy=0;exitPerimeter=0;" edge="1" parent="1" source="h6fizct3Y-xrjBHxHAXL-64" target="h6fizct3Y-xrjBHxHAXL-70">
          <mxGeometry relative="1" as="geometry" />
        </mxCell>
        <mxCell id="h6fizct3Y-xrjBHxHAXL-64" value="L-&amp;gt;sig==NULL" style="strokeWidth=2;html=1;shape=mxgraph.flowchart.decision;whiteSpace=wrap;" vertex="1" parent="1">
          <mxGeometry x="1900" y="410" width="100" height="70" as="geometry" />
        </mxCell>
        <mxCell id="h6fizct3Y-xrjBHxHAXL-65" style="edgeStyle=orthogonalEdgeStyle;rounded=0;orthogonalLoop=1;jettySize=auto;html=1;exitX=1;exitY=0.5;exitDx=0;exitDy=0;exitPerimeter=0;entryX=0.5;entryY=0;entryDx=0;entryDy=0;entryPerimeter=0;" edge="1" parent="1" source="h6fizct3Y-xrjBHxHAXL-60" target="h6fizct3Y-xrjBHxHAXL-64">
          <mxGeometry relative="1" as="geometry" />
        </mxCell>
        <mxCell id="h6fizct3Y-xrjBHxHAXL-66" value="Si" style="text;html=1;align=center;verticalAlign=middle;whiteSpace=wrap;rounded=0;" vertex="1" parent="1">
          <mxGeometry x="1980" y="400" width="60" height="30" as="geometry" />
        </mxCell>
        <mxCell id="h6fizct3Y-xrjBHxHAXL-67" value="No" style="text;html=1;align=center;verticalAlign=middle;whiteSpace=wrap;rounded=0;" vertex="1" parent="1">
          <mxGeometry x="1860" y="390" width="60" height="30" as="geometry" />
        </mxCell>
        <mxCell id="h6fizct3Y-xrjBHxHAXL-68" value="delete L;&lt;div&gt;Inicializa();&lt;/div&gt;" style="rounded=1;whiteSpace=wrap;html=1;absoluteArcSize=1;arcSize=14;strokeWidth=2;" vertex="1" parent="1">
          <mxGeometry x="2005" y="480" width="100" height="80" as="geometry" />
        </mxCell>
        <mxCell id="h6fizct3Y-xrjBHxHAXL-70" value="a=L-&amp;gt;sig;&lt;div&gt;delete L;&lt;/div&gt;&lt;div&gt;L=a;&lt;/div&gt;&lt;div&gt;L-&amp;gt;ant=null;&lt;/div&gt;" style="rounded=1;whiteSpace=wrap;html=1;absoluteArcSize=1;arcSize=14;strokeWidth=2;" vertex="1" parent="1">
          <mxGeometry x="1810" y="480" width="100" height="80" as="geometry" />
        </mxCell>
        <mxCell id="h6fizct3Y-xrjBHxHAXL-76" value="a2=L" style="rounded=1;whiteSpace=wrap;html=1;absoluteArcSize=1;arcSize=14;strokeWidth=2;" vertex="1" parent="1">
          <mxGeometry x="1600" y="400" width="100" height="50" as="geometry" />
        </mxCell>
        <mxCell id="h6fizct3Y-xrjBHxHAXL-86" style="edgeStyle=orthogonalEdgeStyle;rounded=0;orthogonalLoop=1;jettySize=auto;html=1;exitX=0;exitY=0.5;exitDx=0;exitDy=0;exitPerimeter=0;entryX=0.5;entryY=0;entryDx=0;entryDy=0;" edge="1" parent="1" source="h6fizct3Y-xrjBHxHAXL-77" target="h6fizct3Y-xrjBHxHAXL-82">
          <mxGeometry relative="1" as="geometry" />
        </mxCell>
        <mxCell id="h6fizct3Y-xrjBHxHAXL-77" value="a2-&amp;gt;sig !=NULL &amp;amp;&amp;amp; a2-&amp;gt;sig-&amp;gt;dato&amp;lt;aux-&amp;gt;dato" style="strokeWidth=2;html=1;shape=mxgraph.flowchart.decision;whiteSpace=wrap;" vertex="1" parent="1">
          <mxGeometry x="1410" y="480" width="330" height="110" as="geometry" />
        </mxCell>
        <mxCell id="h6fizct3Y-xrjBHxHAXL-78" value="a2=a2-&amp;gt;sig;" style="rounded=1;whiteSpace=wrap;html=1;absoluteArcSize=1;arcSize=14;strokeWidth=2;" vertex="1" parent="1">
          <mxGeometry x="1670" y="590" width="100" height="50" as="geometry" />
        </mxCell>
        <mxCell id="h6fizct3Y-xrjBHxHAXL-79" value="" style="endArrow=classic;html=1;rounded=0;exitX=0.5;exitY=1;exitDx=0;exitDy=0;" edge="1" parent="1" source="h6fizct3Y-xrjBHxHAXL-78">
          <mxGeometry width="50" height="50" relative="1" as="geometry">
            <mxPoint x="1840" y="670" as="sourcePoint" />
            <mxPoint x="1620" y="470" as="targetPoint" />
            <Array as="points">
              <mxPoint x="1720" y="670" />
              <mxPoint x="1780" y="670" />
              <mxPoint x="1780" y="580" />
              <mxPoint x="1780" y="470" />
            </Array>
          </mxGeometry>
        </mxCell>
        <mxCell id="h6fizct3Y-xrjBHxHAXL-80" style="edgeStyle=orthogonalEdgeStyle;rounded=0;orthogonalLoop=1;jettySize=auto;html=1;exitX=0.5;exitY=1;exitDx=0;exitDy=0;entryX=0.5;entryY=0;entryDx=0;entryDy=0;entryPerimeter=0;" edge="1" parent="1" source="h6fizct3Y-xrjBHxHAXL-76" target="h6fizct3Y-xrjBHxHAXL-77">
          <mxGeometry relative="1" as="geometry" />
        </mxCell>
        <mxCell id="h6fizct3Y-xrjBHxHAXL-82" value="a=a2-&amp;gt;sig;&lt;div&gt;a2-&amp;gt;sig=a2-&amp;gt;sig-&amp;gt;sig;&lt;/div&gt;&lt;div&gt;&lt;br&gt;&lt;/div&gt;" style="rounded=1;whiteSpace=wrap;html=1;absoluteArcSize=1;arcSize=14;strokeWidth=2;" vertex="1" parent="1">
          <mxGeometry x="1300" y="600" width="140" height="60" as="geometry" />
        </mxCell>
        <mxCell id="h6fizct3Y-xrjBHxHAXL-94" style="edgeStyle=orthogonalEdgeStyle;rounded=0;orthogonalLoop=1;jettySize=auto;html=1;exitX=0;exitY=0.5;exitDx=0;exitDy=0;exitPerimeter=0;entryX=0.5;entryY=0;entryDx=0;entryDy=0;" edge="1" parent="1" source="h6fizct3Y-xrjBHxHAXL-85" target="h6fizct3Y-xrjBHxHAXL-92">
          <mxGeometry relative="1" as="geometry" />
        </mxCell>
        <mxCell id="h6fizct3Y-xrjBHxHAXL-85" value="a-&amp;gt;sig!=NULL" style="strokeWidth=2;html=1;shape=mxgraph.flowchart.decision;whiteSpace=wrap;" vertex="1" parent="1">
          <mxGeometry x="1320" y="700" width="100" height="70" as="geometry" />
        </mxCell>
        <mxCell id="h6fizct3Y-xrjBHxHAXL-87" style="edgeStyle=orthogonalEdgeStyle;rounded=0;orthogonalLoop=1;jettySize=auto;html=1;exitX=0.5;exitY=1;exitDx=0;exitDy=0;entryX=0.5;entryY=0;entryDx=0;entryDy=0;entryPerimeter=0;" edge="1" parent="1" source="h6fizct3Y-xrjBHxHAXL-82" target="h6fizct3Y-xrjBHxHAXL-85">
          <mxGeometry relative="1" as="geometry" />
        </mxCell>
        <mxCell id="h6fizct3Y-xrjBHxHAXL-93" style="edgeStyle=orthogonalEdgeStyle;rounded=0;orthogonalLoop=1;jettySize=auto;html=1;exitX=0.5;exitY=1;exitDx=0;exitDy=0;entryX=0.5;entryY=0;entryDx=0;entryDy=0;" edge="1" parent="1" source="h6fizct3Y-xrjBHxHAXL-88" target="h6fizct3Y-xrjBHxHAXL-92">
          <mxGeometry relative="1" as="geometry" />
        </mxCell>
        <mxCell id="h6fizct3Y-xrjBHxHAXL-88" value="&lt;div&gt;a-&amp;gt;sig-&amp;gt;ant=a2;&lt;/div&gt;" style="rounded=1;whiteSpace=wrap;html=1;absoluteArcSize=1;arcSize=14;strokeWidth=2;" vertex="1" parent="1">
          <mxGeometry x="1400" y="800" width="140" height="60" as="geometry" />
        </mxCell>
        <mxCell id="h6fizct3Y-xrjBHxHAXL-89" style="edgeStyle=orthogonalEdgeStyle;rounded=0;orthogonalLoop=1;jettySize=auto;html=1;exitX=1;exitY=0.5;exitDx=0;exitDy=0;exitPerimeter=0;entryX=0.571;entryY=0;entryDx=0;entryDy=0;entryPerimeter=0;" edge="1" parent="1" source="h6fizct3Y-xrjBHxHAXL-85" target="h6fizct3Y-xrjBHxHAXL-88">
          <mxGeometry relative="1" as="geometry" />
        </mxCell>
        <mxCell id="h6fizct3Y-xrjBHxHAXL-90" value="No" style="text;html=1;align=center;verticalAlign=middle;whiteSpace=wrap;rounded=0;" vertex="1" parent="1">
          <mxGeometry x="1280" y="690" width="60" height="30" as="geometry" />
        </mxCell>
        <mxCell id="h6fizct3Y-xrjBHxHAXL-91" value="Si" style="text;html=1;align=center;verticalAlign=middle;whiteSpace=wrap;rounded=0;" vertex="1" parent="1">
          <mxGeometry x="1400" y="690" width="60" height="30" as="geometry" />
        </mxCell>
        <mxCell id="h6fizct3Y-xrjBHxHAXL-92" value="&lt;div&gt;delete a;&lt;/div&gt;" style="rounded=1;whiteSpace=wrap;html=1;absoluteArcSize=1;arcSize=14;strokeWidth=2;" vertex="1" parent="1">
          <mxGeometry x="1310" y="900" width="140" height="60" as="geometry" />
        </mxCell>
        <mxCell id="h6fizct3Y-xrjBHxHAXL-95" value="Fin" style="strokeWidth=2;html=1;shape=mxgraph.flowchart.terminator;whiteSpace=wrap;" vertex="1" parent="1">
          <mxGeometry x="1820" y="940" width="100" height="60" as="geometry" />
        </mxCell>
        <mxCell id="h6fizct3Y-xrjBHxHAXL-96" style="edgeStyle=orthogonalEdgeStyle;rounded=0;orthogonalLoop=1;jettySize=auto;html=1;exitX=0.5;exitY=1;exitDx=0;exitDy=0;entryX=0;entryY=0.5;entryDx=0;entryDy=0;entryPerimeter=0;" edge="1" parent="1" source="h6fizct3Y-xrjBHxHAXL-92" target="h6fizct3Y-xrjBHxHAXL-95">
          <mxGeometry relative="1" as="geometry" />
        </mxCell>
        <mxCell id="h6fizct3Y-xrjBHxHAXL-97" style="edgeStyle=orthogonalEdgeStyle;rounded=0;orthogonalLoop=1;jettySize=auto;html=1;exitX=0.5;exitY=1;exitDx=0;exitDy=0;entryX=0.5;entryY=0;entryDx=0;entryDy=0;entryPerimeter=0;" edge="1" parent="1" source="h6fizct3Y-xrjBHxHAXL-70" target="h6fizct3Y-xrjBHxHAXL-95">
          <mxGeometry relative="1" as="geometry" />
        </mxCell>
        <mxCell id="h6fizct3Y-xrjBHxHAXL-98" style="edgeStyle=orthogonalEdgeStyle;rounded=0;orthogonalLoop=1;jettySize=auto;html=1;exitX=0.5;exitY=1;exitDx=0;exitDy=0;entryX=0.5;entryY=0;entryDx=0;entryDy=0;entryPerimeter=0;" edge="1" parent="1" source="h6fizct3Y-xrjBHxHAXL-68" target="h6fizct3Y-xrjBHxHAXL-95">
          <mxGeometry relative="1" as="geometry" />
        </mxCell>
        <mxCell id="h6fizct3Y-xrjBHxHAXL-99" style="edgeStyle=orthogonalEdgeStyle;rounded=0;orthogonalLoop=1;jettySize=auto;html=1;exitX=0.5;exitY=1;exitDx=0;exitDy=0;entryX=0.5;entryY=0;entryDx=0;entryDy=0;entryPerimeter=0;" edge="1" parent="1" source="h6fizct3Y-xrjBHxHAXL-52" target="h6fizct3Y-xrjBHxHAXL-95">
          <mxGeometry relative="1" as="geometry" />
        </mxCell>
      </root>
    </mxGraphModel>
  </diagram>
</mxfile>
